<mxfile host="app.diagrams.net" modified="2023-06-19T16:32:51.950Z" agent="Mozilla/5.0 (Windows NT 10.0; Win64; x64) AppleWebKit/537.36 (KHTML, like Gecko) Chrome/114.0.0.0 Safari/537.36" etag="k1qCj7qdjFIZ2rQUl5Ow" version="21.5.0" type="device">
  <diagram name="Page-1" id="YxYWGc8qss0C_yK2NLOe">
    <mxGraphModel dx="794" dy="1107" grid="1" gridSize="10" guides="1" tooltips="1" connect="1" arrows="1" fold="1" page="1" pageScale="1" pageWidth="850" pageHeight="1100" math="0" shadow="0">
      <root>
        <mxCell id="0" />
        <mxCell id="1" parent="0" />
        <mxCell id="PaEDsx9FTq3l2LRvBHAz-57" value="" style="rounded=0;whiteSpace=wrap;html=1;" parent="1" vertex="1">
          <mxGeometry x="400" y="90" width="350" height="610" as="geometry" />
        </mxCell>
        <mxCell id="ESqp2474Z0uisLlPdI4f-133" style="edgeStyle=orthogonalEdgeStyle;rounded=0;orthogonalLoop=1;jettySize=auto;html=1;entryX=-0.019;entryY=0.596;entryDx=0;entryDy=0;entryPerimeter=0;" parent="1" source="PaEDsx9FTq3l2LRvBHAz-58" target="PaEDsx9FTq3l2LRvBHAz-61" edge="1">
          <mxGeometry relative="1" as="geometry" />
        </mxCell>
        <mxCell id="PaEDsx9FTq3l2LRvBHAz-58" value="Event type" style="rounded=1;fillColor=#F1F2F4;strokeColor=none;html=1;whiteSpace=wrap;fontColor=#596780;align=left;fontSize=12;spacingLeft=10;sketch=0;" parent="1" vertex="1">
          <mxGeometry x="420" y="190" width="140" height="33" as="geometry" />
        </mxCell>
        <mxCell id="PaEDsx9FTq3l2LRvBHAz-59" value="" style="shape=triangle;direction=south;fillColor=#596780;strokeColor=none;html=1;sketch=0;" parent="PaEDsx9FTq3l2LRvBHAz-58" vertex="1">
          <mxGeometry x="1" y="0.5" width="12" height="6" relative="1" as="geometry">
            <mxPoint x="-20" y="-3" as="offset" />
          </mxGeometry>
        </mxCell>
        <mxCell id="PaEDsx9FTq3l2LRvBHAz-60" value="&lt;font style=&quot;font-size: 18px;&quot;&gt;New Event&lt;/font&gt;" style="text;html=1;strokeColor=none;fillColor=none;align=left;verticalAlign=middle;whiteSpace=wrap;rounded=0;" parent="1" vertex="1">
          <mxGeometry x="415" y="150" width="130" height="30" as="geometry" />
        </mxCell>
        <mxCell id="PaEDsx9FTq3l2LRvBHAz-61" value="&lt;div&gt;&lt;br&gt;&lt;/div&gt;&lt;ul&gt;&lt;li&gt;City&lt;/li&gt;&lt;li&gt;Accommodation&lt;/li&gt;&lt;li style=&quot;&quot;&gt;Transportation&lt;/li&gt;&lt;li style=&quot;&quot;&gt;Attraction / Event&lt;/li&gt;&lt;li style=&quot;&quot;&gt;Food and drinks&lt;/li&gt;&lt;li style=&quot;&quot;&gt;Task / Todo reminder&lt;/li&gt;&lt;/ul&gt;" style="text;html=1;align=left;verticalAlign=middle;whiteSpace=wrap;rounded=0;fillColor=#FFFFFF;fontColor=#333333;strokeColor=#666666;" parent="1" vertex="1">
          <mxGeometry x="790" y="130" width="160" height="130" as="geometry" />
        </mxCell>
        <mxCell id="PaEDsx9FTq3l2LRvBHAz-62" value="" style="group" parent="1" vertex="1" connectable="0">
          <mxGeometry y="90" width="380" height="610" as="geometry" />
        </mxCell>
        <mxCell id="PaEDsx9FTq3l2LRvBHAz-1" value="" style="rounded=0;whiteSpace=wrap;html=1;" parent="PaEDsx9FTq3l2LRvBHAz-62" vertex="1">
          <mxGeometry width="370" height="610" as="geometry" />
        </mxCell>
        <mxCell id="PaEDsx9FTq3l2LRvBHAz-2" value="Gr&amp;nbsp; &amp;nbsp;o&amp;nbsp; upTripper" style="html=1;shadow=0;dashed=0;fillColor=#F8F9FA;strokeColor=none;fontSize=16;fontColor=#181819;align=left;spacing=15;" parent="PaEDsx9FTq3l2LRvBHAz-62" vertex="1">
          <mxGeometry width="370" height="50" as="geometry" />
        </mxCell>
        <mxCell id="PaEDsx9FTq3l2LRvBHAz-3" value="Username" style="fillColor=none;strokeColor=none;fontSize=14;fontColor=#7C7C7D;align=center;" parent="PaEDsx9FTq3l2LRvBHAz-2" vertex="1">
          <mxGeometry width="50" height="40" relative="1" as="geometry">
            <mxPoint x="300" y="5" as="offset" />
          </mxGeometry>
        </mxCell>
        <mxCell id="PaEDsx9FTq3l2LRvBHAz-4" value="" style="html=1;verticalLabelPosition=bottom;align=center;labelBackgroundColor=#ffffff;verticalAlign=top;strokeWidth=2;strokeColor=#0080F0;shadow=0;dashed=0;shape=mxgraph.ios7.icons.location;" parent="PaEDsx9FTq3l2LRvBHAz-2" vertex="1">
          <mxGeometry x="30" y="10.158333333333335" width="28.24" height="29.683333333333334" as="geometry" />
        </mxCell>
        <mxCell id="PaEDsx9FTq3l2LRvBHAz-5" value="" style="html=1;verticalLabelPosition=bottom;align=center;labelBackgroundColor=#ffffff;verticalAlign=top;strokeWidth=2;strokeColor=#0080F0;shadow=0;dashed=0;shape=mxgraph.ios7.icons.user;" parent="PaEDsx9FTq3l2LRvBHAz-2" vertex="1">
          <mxGeometry x="260" y="10.153333333333334" width="30" height="29.683333333333334" as="geometry" />
        </mxCell>
        <mxCell id="PaEDsx9FTq3l2LRvBHAz-9" value="" style="group" parent="PaEDsx9FTq3l2LRvBHAz-62" vertex="1" connectable="0">
          <mxGeometry x="10" y="60" width="360" height="75" as="geometry" />
        </mxCell>
        <mxCell id="PaEDsx9FTq3l2LRvBHAz-10" value="" style="rounded=0;whiteSpace=wrap;html=1;" parent="PaEDsx9FTq3l2LRvBHAz-9" vertex="1">
          <mxGeometry x="10" y="10" width="280" height="20" as="geometry" />
        </mxCell>
        <mxCell id="PaEDsx9FTq3l2LRvBHAz-11" value="Title of my trip" style="html=1;shadow=0;dashed=0;shape=mxgraph.bootstrap.rrect;rSize=5;html=1;whiteSpace=wrap;align=left;spacing=15;spacingLeft=40;fontSize=14;" parent="PaEDsx9FTq3l2LRvBHAz-9" vertex="1">
          <mxGeometry width="350" height="40" as="geometry" />
        </mxCell>
        <mxCell id="PaEDsx9FTq3l2LRvBHAz-12" value="" style="html=1;dashed=0;aspect=fixed;verticalLabelPosition=bottom;verticalAlign=top;align=center;shape=mxgraph.gmdl.edit;strokeColor=none;fillColor=#737373;shadow=0;sketch=0;" parent="PaEDsx9FTq3l2LRvBHAz-9" vertex="1">
          <mxGeometry x="320" y="10" width="20" height="20" as="geometry" />
        </mxCell>
        <mxCell id="ESqp2474Z0uisLlPdI4f-1" value="Polls" style="strokeWidth=1;shadow=0;dashed=0;align=center;html=1;shape=mxgraph.mockup.containers.rrect;rSize=0;fontSize=17;fontStyle=0;" parent="PaEDsx9FTq3l2LRvBHAz-9" vertex="1">
          <mxGeometry x="170" y="50" width="70" height="25" as="geometry" />
        </mxCell>
        <mxCell id="PaEDsx9FTq3l2LRvBHAz-14" value="" style="strokeWidth=1;shadow=0;dashed=0;align=center;html=1;shape=mxgraph.mockup.containers.marginRect2;rectMarginTop=32;strokeColor=#E6E6E6;gradientColor=none;whiteSpace=wrap;" parent="PaEDsx9FTq3l2LRvBHAz-62" vertex="1">
          <mxGeometry x="15" y="110" width="365" height="490" as="geometry" />
        </mxCell>
        <mxCell id="ESqp2474Z0uisLlPdI4f-5" value="" style="rounded=0;whiteSpace=wrap;html=1;" parent="PaEDsx9FTq3l2LRvBHAz-14" vertex="1">
          <mxGeometry x="5" y="120" width="325" height="350" as="geometry" />
        </mxCell>
        <mxCell id="PaEDsx9FTq3l2LRvBHAz-15" value="Participants" style="strokeColor=#FFFFFF;fillColor=#FFFFFF;strokeWidth=1;shadow=0;dashed=0;align=center;html=1;shape=mxgraph.mockup.containers.rrect;rSize=0;fontSize=17;fontColor=#666666;" parent="PaEDsx9FTq3l2LRvBHAz-14" vertex="1">
          <mxGeometry width="90" height="25" relative="1" as="geometry">
            <mxPoint x="10" as="offset" />
          </mxGeometry>
        </mxCell>
        <mxCell id="PaEDsx9FTq3l2LRvBHAz-16" value="Itinerary" style="strokeWidth=1;shadow=0;dashed=0;align=center;html=1;shape=mxgraph.mockup.containers.rrect;rSize=0;fontSize=17;fontStyle=0;fontColor=#FFFFFF;fillColor=#999999;" parent="PaEDsx9FTq3l2LRvBHAz-14" vertex="1">
          <mxGeometry width="70" height="25" relative="1" as="geometry">
            <mxPoint x="100" as="offset" />
          </mxGeometry>
        </mxCell>
        <mxCell id="PaEDsx9FTq3l2LRvBHAz-17" value="" style="strokeWidth=1;shadow=0;dashed=0;align=center;html=1;shape=mxgraph.mockup.containers.topButton;rSize=5;strokeColor=#314354;fillColor=#647687;resizeWidth=1;movable=0;deletable=1;fontColor=#ffffff;" parent="PaEDsx9FTq3l2LRvBHAz-14" vertex="1">
          <mxGeometry width="298.780487804878" height="7" relative="1" as="geometry">
            <mxPoint y="25" as="offset" />
          </mxGeometry>
        </mxCell>
        <mxCell id="PaEDsx9FTq3l2LRvBHAz-53" value="Start date: 15 July 2023 - End date: 30 July 2023" style="rounded=0;whiteSpace=wrap;html=1;align=left;dashed=1;" parent="PaEDsx9FTq3l2LRvBHAz-14" vertex="1">
          <mxGeometry x="15" y="40" width="295" height="20" as="geometry" />
        </mxCell>
        <mxCell id="PaEDsx9FTq3l2LRvBHAz-56" value="&lt;font color=&quot;#080808&quot;&gt;Add event&lt;/font&gt;" style="rounded=1;fillColor=#f5f5f5;strokeColor=#666666;html=1;whiteSpace=wrap;fontColor=#333333;align=center;verticalAlign=middle;fontStyle=0;fontSize=12;sketch=0;" parent="PaEDsx9FTq3l2LRvBHAz-14" vertex="1">
          <mxGeometry x="15" y="70" width="145" height="40" as="geometry" />
        </mxCell>
        <mxCell id="PaEDsx9FTq3l2LRvBHAz-49" value="" style="shape=image;html=1;verticalAlign=top;verticalLabelPosition=bottom;labelBackgroundColor=#ffffff;imageAspect=0;aspect=fixed;image=https://cdn4.iconfinder.com/data/icons/evil-icons-user-interface/64/plus-128.png" parent="PaEDsx9FTq3l2LRvBHAz-14" vertex="1">
          <mxGeometry x="25" y="75" width="30" height="30" as="geometry" />
        </mxCell>
        <mxCell id="PaEDsx9FTq3l2LRvBHAz-63" value="" style="endArrow=classic;html=1;rounded=0;entryX=-0.007;entryY=0.393;entryDx=0;entryDy=0;entryPerimeter=0;" parent="PaEDsx9FTq3l2LRvBHAz-14" target="PaEDsx9FTq3l2LRvBHAz-57" edge="1">
          <mxGeometry width="50" height="50" relative="1" as="geometry">
            <mxPoint x="150" y="90" as="sourcePoint" />
            <mxPoint x="200" y="40" as="targetPoint" />
          </mxGeometry>
        </mxCell>
        <mxCell id="ESqp2474Z0uisLlPdI4f-120" value="" style="html=1;shadow=0;dashed=0;shape=mxgraph.bootstrap.rrect;rSize=5;strokeColor=#CED4DA;html=1;whiteSpace=wrap;fillColor=#FFFFFF;fontColor=#7D868C;align=left;spacingLeft=50;fontSize=14;" parent="PaEDsx9FTq3l2LRvBHAz-14" vertex="1">
          <mxGeometry width="110" height="20" relative="1" as="geometry">
            <mxPoint x="405" y="300" as="offset" />
          </mxGeometry>
        </mxCell>
        <mxCell id="ESqp2474Z0uisLlPdI4f-121" value="Cost" style="html=1;shadow=0;dashed=0;shape=mxgraph.bootstrap.leftButton;strokeColor=inherit;gradientColor=inherit;fontColor=inherit;fillColor=#E9ECEF;rSize=5;perimeter=none;whiteSpace=wrap;resizeHeight=1;" parent="ESqp2474Z0uisLlPdI4f-120" vertex="1">
          <mxGeometry width="40" height="20" relative="1" as="geometry" />
        </mxCell>
        <mxCell id="ESqp2474Z0uisLlPdI4f-136" value="" style="endArrow=classic;html=1;rounded=0;" parent="PaEDsx9FTq3l2LRvBHAz-14" edge="1">
          <mxGeometry width="50" height="50" relative="1" as="geometry">
            <mxPoint x="160" y="240" as="sourcePoint" />
            <mxPoint x="415" y="560" as="targetPoint" />
          </mxGeometry>
        </mxCell>
        <mxCell id="ESqp2474Z0uisLlPdI4f-141" value="" style="group" parent="PaEDsx9FTq3l2LRvBHAz-14" vertex="1" connectable="0">
          <mxGeometry x="15" y="130" width="310" height="280" as="geometry" />
        </mxCell>
        <mxCell id="PaEDsx9FTq3l2LRvBHAz-68" value="&lt;div&gt;&amp;lt;Event name&amp;gt;&lt;/div&gt;&lt;span style=&quot;background-color: initial;&quot;&gt;&lt;br&gt;&lt;font style=&quot;font-size: 8px;&quot;&gt;start date end date&lt;/font&gt;&lt;/span&gt;&lt;br&gt;&lt;span style=&quot;background-color: initial;&quot;&gt;&lt;font style=&quot;font-size: 10px;&quot;&gt;Status: awaiting votes, to book / booked&lt;/font&gt;&lt;/span&gt;" style="rounded=0;whiteSpace=wrap;html=1;align=left;" parent="PaEDsx9FTq3l2LRvBHAz-14" vertex="1">
          <mxGeometry x="15" y="210" width="300" height="120" as="geometry" />
        </mxCell>
        <mxCell id="ESqp2474Z0uisLlPdI4f-146" value="&lt;br&gt;&lt;span style=&quot;color: rgb(0, 0, 0); font-family: Helvetica; font-size: 12px; font-style: normal; font-variant-ligatures: normal; font-variant-caps: normal; font-weight: 400; letter-spacing: normal; orphans: 2; text-align: center; text-indent: 0px; text-transform: none; widows: 2; word-spacing: 0px; -webkit-text-stroke-width: 0px; background-color: rgb(251, 251, 251); text-decoration-thickness: initial; text-decoration-style: initial; text-decoration-color: initial; float: none; display: inline !important;&quot;&gt;2 comments&lt;/span&gt;&lt;br&gt;" style="text;html=1;strokeColor=#666666;fillColor=#f5f5f5;align=center;verticalAlign=middle;whiteSpace=wrap;rounded=0;fontColor=#333333;" parent="PaEDsx9FTq3l2LRvBHAz-14" vertex="1">
          <mxGeometry x="240" y="260" width="75" height="30" as="geometry" />
        </mxCell>
        <mxCell id="ESqp2474Z0uisLlPdI4f-148" value="All categories" style="rounded=1;fillColor=#F1F2F4;strokeColor=none;html=1;whiteSpace=wrap;fontColor=#596780;align=left;fontSize=12;spacingLeft=10;sketch=0;" parent="PaEDsx9FTq3l2LRvBHAz-14" vertex="1">
          <mxGeometry x="15" y="130" width="125" height="30" as="geometry" />
        </mxCell>
        <mxCell id="ESqp2474Z0uisLlPdI4f-149" value="" style="shape=triangle;direction=south;fillColor=#596780;strokeColor=none;html=1;sketch=0;" parent="ESqp2474Z0uisLlPdI4f-148" vertex="1">
          <mxGeometry x="1" y="0.5" width="12" height="6" relative="1" as="geometry">
            <mxPoint x="-20" y="-3" as="offset" />
          </mxGeometry>
        </mxCell>
        <mxCell id="ESqp2474Z0uisLlPdI4f-150" value="Event category" style="text;html=1;strokeColor=#666666;fillColor=#f5f5f5;align=center;verticalAlign=middle;whiteSpace=wrap;rounded=0;fontColor=#333333;" parent="PaEDsx9FTq3l2LRvBHAz-14" vertex="1">
          <mxGeometry x="15" y="210" width="110" height="30" as="geometry" />
        </mxCell>
        <mxCell id="S9qrW3f3tE1Byt3DYHgR-4" value="" style="dashed=0;labelPosition=right;align=left;shape=mxgraph.gmdl.checkbox;strokeColor=none;fillColor=#B0B0B0;strokeWidth=2;aspect=fixed;sketch=0;html=1;" vertex="1" parent="PaEDsx9FTq3l2LRvBHAz-14">
          <mxGeometry x="299" y="137" width="16" height="16" as="geometry" />
        </mxCell>
        <mxCell id="S9qrW3f3tE1Byt3DYHgR-5" value="Show only events where I participate" style="text;html=1;strokeColor=none;fillColor=none;align=left;verticalAlign=middle;whiteSpace=wrap;rounded=0;" vertex="1" parent="PaEDsx9FTq3l2LRvBHAz-14">
          <mxGeometry x="155" y="130" width="140" height="30" as="geometry" />
        </mxCell>
        <mxCell id="S9qrW3f3tE1Byt3DYHgR-15" value="Status: all" style="rounded=1;fillColor=#F1F2F4;strokeColor=none;html=1;whiteSpace=wrap;fontColor=#596780;align=left;fontSize=12;spacingLeft=10;sketch=0;" vertex="1" parent="PaEDsx9FTq3l2LRvBHAz-14">
          <mxGeometry x="15" y="170" width="125" height="30" as="geometry" />
        </mxCell>
        <mxCell id="S9qrW3f3tE1Byt3DYHgR-16" value="" style="shape=triangle;direction=south;fillColor=#596780;strokeColor=none;html=1;sketch=0;" vertex="1" parent="S9qrW3f3tE1Byt3DYHgR-15">
          <mxGeometry x="1" y="0.5" width="12" height="6" relative="1" as="geometry">
            <mxPoint x="-20" y="-3" as="offset" />
          </mxGeometry>
        </mxCell>
        <mxCell id="S9qrW3f3tE1Byt3DYHgR-6" value="Settings" style="strokeWidth=1;shadow=0;dashed=0;align=center;html=1;shape=mxgraph.mockup.containers.rrect;rSize=0;fontSize=17;fontStyle=0;" vertex="1" parent="PaEDsx9FTq3l2LRvBHAz-62">
          <mxGeometry x="250" y="110" width="70" height="25" as="geometry" />
        </mxCell>
        <mxCell id="ESqp2474Z0uisLlPdI4f-2" value="" style="endArrow=classic;html=1;rounded=0;exitX=1;exitY=1;exitDx=0;exitDy=0;" parent="1" source="ESqp2474Z0uisLlPdI4f-5" edge="1">
          <mxGeometry width="50" height="50" relative="1" as="geometry">
            <mxPoint x="560" y="540" as="sourcePoint" />
            <mxPoint x="310" y="730" as="targetPoint" />
            <Array as="points" />
          </mxGeometry>
        </mxCell>
        <mxCell id="ESqp2474Z0uisLlPdI4f-3" value="Events are ordered by date, displaying cities first" style="text;html=1;strokeColor=none;fillColor=none;align=center;verticalAlign=middle;whiteSpace=wrap;rounded=0;" parent="1" vertex="1">
          <mxGeometry x="220" y="740" width="180" height="30" as="geometry" />
        </mxCell>
        <mxCell id="ESqp2474Z0uisLlPdI4f-10" value="Save" style="rounded=1;fillColor=#0057D8;strokeColor=none;html=1;whiteSpace=wrap;fontColor=#ffffff;align=center;verticalAlign=middle;fontStyle=0;fontSize=12;sketch=0;" parent="1" vertex="1">
          <mxGeometry x="600" y="660" width="86" height="33" as="geometry" />
        </mxCell>
        <mxCell id="ESqp2474Z0uisLlPdI4f-11" value="Cancel" style="rounded=1;fillColor=#0057D8;strokeColor=none;html=1;whiteSpace=wrap;fontColor=#ffffff;align=center;verticalAlign=middle;fontStyle=0;fontSize=12;sketch=0;" parent="1" vertex="1">
          <mxGeometry x="477" y="660" width="86" height="33" as="geometry" />
        </mxCell>
        <mxCell id="ESqp2474Z0uisLlPdI4f-16" value="" style="group" parent="1" vertex="1" connectable="0">
          <mxGeometry x="420" y="230" width="120" height="20" as="geometry" />
        </mxCell>
        <mxCell id="ESqp2474Z0uisLlPdI4f-12" value="Name / Description" style="fillColor=none;strokeColor=none;align=left;fontSize=14;fontColor=#212529;" parent="ESqp2474Z0uisLlPdI4f-16" vertex="1">
          <mxGeometry width="120" height="20" as="geometry" />
        </mxCell>
        <mxCell id="ESqp2474Z0uisLlPdI4f-13" value="..." style="html=1;shadow=0;dashed=0;shape=mxgraph.bootstrap.rrect;rSize=5;fillColor=none;strokeColor=#999999;align=left;spacing=15;fontSize=14;fontColor=#6C767D;" parent="ESqp2474Z0uisLlPdI4f-16" vertex="1">
          <mxGeometry width="310" height="20" relative="1" as="geometry">
            <mxPoint y="20" as="offset" />
          </mxGeometry>
        </mxCell>
        <mxCell id="ESqp2474Z0uisLlPdI4f-17" value="" style="group" parent="1" vertex="1" connectable="0">
          <mxGeometry x="420" y="300" width="120" height="20" as="geometry" />
        </mxCell>
        <mxCell id="ESqp2474Z0uisLlPdI4f-18" value="Start date" style="fillColor=none;strokeColor=none;align=left;fontSize=14;fontColor=#212529;" parent="ESqp2474Z0uisLlPdI4f-17" vertex="1">
          <mxGeometry y="-20" width="120" height="20" as="geometry" />
        </mxCell>
        <mxCell id="ESqp2474Z0uisLlPdI4f-23" value="End date" style="fillColor=none;strokeColor=none;align=left;fontSize=14;fontColor=#212529;" parent="1" vertex="1">
          <mxGeometry x="530" y="280" width="120" height="20" as="geometry" />
        </mxCell>
        <mxCell id="ESqp2474Z0uisLlPdI4f-24" value="" style="strokeWidth=1;shadow=0;dashed=0;align=center;html=1;shape=mxgraph.mockup.forms.rrect;rSize=5;strokeColor=#999999;fillColor=#ffffff;" parent="1" vertex="1">
          <mxGeometry x="890" y="270" width="100" height="110" as="geometry" />
        </mxCell>
        <mxCell id="ESqp2474Z0uisLlPdI4f-25" value="October 2014" style="strokeWidth=1;shadow=0;dashed=0;align=center;html=1;shape=mxgraph.mockup.forms.anchor;fontColor=#999999;" parent="ESqp2474Z0uisLlPdI4f-24" vertex="1">
          <mxGeometry x="18.75" y="5.028571428571428" width="62.5" height="12.57142857142857" as="geometry" />
        </mxCell>
        <mxCell id="ESqp2474Z0uisLlPdI4f-26" value="&lt;" style="strokeWidth=1;shadow=0;dashed=0;align=center;html=1;shape=mxgraph.mockup.forms.rrect;rSize=4;strokeColor=#999999;fontColor=#008cff;fontSize=19;fontStyle=1;" parent="ESqp2474Z0uisLlPdI4f-24" vertex="1">
          <mxGeometry x="5" y="5.028571428571428" width="15.625" height="12.57142857142857" as="geometry" />
        </mxCell>
        <mxCell id="ESqp2474Z0uisLlPdI4f-27" value="&gt;" style="strokeWidth=1;shadow=0;dashed=0;align=center;html=1;shape=mxgraph.mockup.forms.rrect;rSize=4;strokeColor=#999999;fontColor=#008cff;fontSize=19;fontStyle=1;" parent="ESqp2474Z0uisLlPdI4f-24" vertex="1">
          <mxGeometry x="79.375" y="5.028571428571428" width="15.625" height="12.57142857142857" as="geometry" />
        </mxCell>
        <mxCell id="ESqp2474Z0uisLlPdI4f-28" value="Mo" style="strokeWidth=1;shadow=0;dashed=0;align=center;html=1;shape=mxgraph.mockup.forms.anchor;fontColor=#999999;" parent="ESqp2474Z0uisLlPdI4f-24" vertex="1">
          <mxGeometry x="6.25" y="17.599999999999998" width="12.5" height="12.57142857142857" as="geometry" />
        </mxCell>
        <mxCell id="ESqp2474Z0uisLlPdI4f-29" value="Tu" style="strokeWidth=1;shadow=0;dashed=0;align=center;html=1;shape=mxgraph.mockup.forms.anchor;fontColor=#999999;" parent="ESqp2474Z0uisLlPdI4f-24" vertex="1">
          <mxGeometry x="18.75" y="17.599999999999998" width="12.5" height="12.57142857142857" as="geometry" />
        </mxCell>
        <mxCell id="ESqp2474Z0uisLlPdI4f-30" value="We" style="strokeWidth=1;shadow=0;dashed=0;align=center;html=1;shape=mxgraph.mockup.forms.anchor;fontColor=#999999;" parent="ESqp2474Z0uisLlPdI4f-24" vertex="1">
          <mxGeometry x="31.25" y="17.599999999999998" width="12.5" height="12.57142857142857" as="geometry" />
        </mxCell>
        <mxCell id="ESqp2474Z0uisLlPdI4f-31" value="Th" style="strokeWidth=1;shadow=0;dashed=0;align=center;html=1;shape=mxgraph.mockup.forms.anchor;fontColor=#999999;" parent="ESqp2474Z0uisLlPdI4f-24" vertex="1">
          <mxGeometry x="43.75" y="17.599999999999998" width="12.5" height="12.57142857142857" as="geometry" />
        </mxCell>
        <mxCell id="ESqp2474Z0uisLlPdI4f-32" value="Fr" style="strokeWidth=1;shadow=0;dashed=0;align=center;html=1;shape=mxgraph.mockup.forms.anchor;fontColor=#999999;" parent="ESqp2474Z0uisLlPdI4f-24" vertex="1">
          <mxGeometry x="56.25" y="17.599999999999998" width="12.5" height="12.57142857142857" as="geometry" />
        </mxCell>
        <mxCell id="ESqp2474Z0uisLlPdI4f-33" value="Sa" style="strokeWidth=1;shadow=0;dashed=0;align=center;html=1;shape=mxgraph.mockup.forms.anchor;fontColor=#999999;" parent="ESqp2474Z0uisLlPdI4f-24" vertex="1">
          <mxGeometry x="68.75" y="17.599999999999998" width="12.5" height="12.57142857142857" as="geometry" />
        </mxCell>
        <mxCell id="ESqp2474Z0uisLlPdI4f-34" value="Su" style="strokeWidth=1;shadow=0;dashed=0;align=center;html=1;shape=mxgraph.mockup.forms.anchor;fontColor=#999999;" parent="ESqp2474Z0uisLlPdI4f-24" vertex="1">
          <mxGeometry x="81.25" y="17.599999999999998" width="12.5" height="12.57142857142857" as="geometry" />
        </mxCell>
        <mxCell id="ESqp2474Z0uisLlPdI4f-35" value="1" style="strokeWidth=1;shadow=0;dashed=0;align=center;html=1;shape=mxgraph.mockup.forms.rrect;rSize=0;strokeColor=#999999;fontColor=#999999;" parent="ESqp2474Z0uisLlPdI4f-24" vertex="1">
          <mxGeometry x="6.25" y="30.171428571428567" width="12.5" height="12.57142857142857" as="geometry" />
        </mxCell>
        <mxCell id="ESqp2474Z0uisLlPdI4f-36" value="2" style="strokeWidth=1;shadow=0;dashed=0;align=center;html=1;shape=mxgraph.mockup.forms.rrect;rSize=0;strokeColor=#999999;fontColor=#999999;" parent="ESqp2474Z0uisLlPdI4f-24" vertex="1">
          <mxGeometry x="18.75" y="30.171428571428567" width="12.5" height="12.57142857142857" as="geometry" />
        </mxCell>
        <mxCell id="ESqp2474Z0uisLlPdI4f-37" value="3" style="strokeWidth=1;shadow=0;dashed=0;align=center;html=1;shape=mxgraph.mockup.forms.rrect;rSize=0;strokeColor=#999999;fontColor=#999999;" parent="ESqp2474Z0uisLlPdI4f-24" vertex="1">
          <mxGeometry x="31.25" y="30.171428571428567" width="12.5" height="12.57142857142857" as="geometry" />
        </mxCell>
        <mxCell id="ESqp2474Z0uisLlPdI4f-38" value="4" style="strokeWidth=1;shadow=0;dashed=0;align=center;html=1;shape=mxgraph.mockup.forms.rrect;rSize=0;strokeColor=#999999;fontColor=#999999;" parent="ESqp2474Z0uisLlPdI4f-24" vertex="1">
          <mxGeometry x="43.75" y="30.171428571428567" width="12.5" height="12.57142857142857" as="geometry" />
        </mxCell>
        <mxCell id="ESqp2474Z0uisLlPdI4f-39" value="5" style="strokeWidth=1;shadow=0;dashed=0;align=center;html=1;shape=mxgraph.mockup.forms.rrect;rSize=0;strokeColor=#999999;fontColor=#999999;" parent="ESqp2474Z0uisLlPdI4f-24" vertex="1">
          <mxGeometry x="56.25" y="30.171428571428567" width="12.5" height="12.57142857142857" as="geometry" />
        </mxCell>
        <mxCell id="ESqp2474Z0uisLlPdI4f-40" value="6" style="strokeWidth=1;shadow=0;dashed=0;align=center;html=1;shape=mxgraph.mockup.forms.rrect;rSize=0;strokeColor=#999999;fontColor=#999999;" parent="ESqp2474Z0uisLlPdI4f-24" vertex="1">
          <mxGeometry x="68.75" y="30.171428571428567" width="12.5" height="12.57142857142857" as="geometry" />
        </mxCell>
        <mxCell id="ESqp2474Z0uisLlPdI4f-41" value="7" style="strokeWidth=1;shadow=0;dashed=0;align=center;html=1;shape=mxgraph.mockup.forms.rrect;rSize=0;strokeColor=#999999;fontColor=#999999;" parent="ESqp2474Z0uisLlPdI4f-24" vertex="1">
          <mxGeometry x="81.25" y="30.171428571428567" width="12.5" height="12.57142857142857" as="geometry" />
        </mxCell>
        <mxCell id="ESqp2474Z0uisLlPdI4f-42" value="8" style="strokeWidth=1;shadow=0;dashed=0;align=center;html=1;shape=mxgraph.mockup.forms.rrect;rSize=0;strokeColor=#999999;fontColor=#999999;" parent="ESqp2474Z0uisLlPdI4f-24" vertex="1">
          <mxGeometry x="6.25" y="42.74285714285713" width="12.5" height="12.57142857142857" as="geometry" />
        </mxCell>
        <mxCell id="ESqp2474Z0uisLlPdI4f-43" value="9" style="strokeWidth=1;shadow=0;dashed=0;align=center;html=1;shape=mxgraph.mockup.forms.rrect;rSize=0;strokeColor=#999999;fontColor=#999999;" parent="ESqp2474Z0uisLlPdI4f-24" vertex="1">
          <mxGeometry x="18.75" y="42.74285714285713" width="12.5" height="12.57142857142857" as="geometry" />
        </mxCell>
        <mxCell id="ESqp2474Z0uisLlPdI4f-44" value="10" style="strokeWidth=1;shadow=0;dashed=0;align=center;html=1;shape=mxgraph.mockup.forms.rrect;rSize=0;strokeColor=#999999;fontColor=#999999;" parent="ESqp2474Z0uisLlPdI4f-24" vertex="1">
          <mxGeometry x="31.25" y="42.74285714285713" width="12.5" height="12.57142857142857" as="geometry" />
        </mxCell>
        <mxCell id="ESqp2474Z0uisLlPdI4f-45" value="11" style="strokeWidth=1;shadow=0;dashed=0;align=center;html=1;shape=mxgraph.mockup.forms.rrect;rSize=0;strokeColor=#999999;fontColor=#999999;" parent="ESqp2474Z0uisLlPdI4f-24" vertex="1">
          <mxGeometry x="43.75" y="42.74285714285713" width="12.5" height="12.57142857142857" as="geometry" />
        </mxCell>
        <mxCell id="ESqp2474Z0uisLlPdI4f-46" value="12" style="strokeWidth=1;shadow=0;dashed=0;align=center;html=1;shape=mxgraph.mockup.forms.rrect;rSize=0;strokeColor=#999999;fontColor=#999999;" parent="ESqp2474Z0uisLlPdI4f-24" vertex="1">
          <mxGeometry x="56.25" y="42.74285714285713" width="12.5" height="12.57142857142857" as="geometry" />
        </mxCell>
        <mxCell id="ESqp2474Z0uisLlPdI4f-47" value="13" style="strokeWidth=1;shadow=0;dashed=0;align=center;html=1;shape=mxgraph.mockup.forms.rrect;rSize=0;strokeColor=#999999;fontColor=#999999;" parent="ESqp2474Z0uisLlPdI4f-24" vertex="1">
          <mxGeometry x="68.75" y="42.74285714285713" width="12.5" height="12.57142857142857" as="geometry" />
        </mxCell>
        <mxCell id="ESqp2474Z0uisLlPdI4f-48" value="14" style="strokeWidth=1;shadow=0;dashed=0;align=center;html=1;shape=mxgraph.mockup.forms.rrect;rSize=0;strokeColor=#999999;fontColor=#999999;" parent="ESqp2474Z0uisLlPdI4f-24" vertex="1">
          <mxGeometry x="81.25" y="42.74285714285713" width="12.5" height="12.57142857142857" as="geometry" />
        </mxCell>
        <mxCell id="ESqp2474Z0uisLlPdI4f-49" value="15" style="strokeWidth=1;shadow=0;dashed=0;align=center;html=1;shape=mxgraph.mockup.forms.rrect;rSize=0;strokeColor=#999999;fontColor=#999999;" parent="ESqp2474Z0uisLlPdI4f-24" vertex="1">
          <mxGeometry x="6.25" y="55.31428571428571" width="12.5" height="12.57142857142857" as="geometry" />
        </mxCell>
        <mxCell id="ESqp2474Z0uisLlPdI4f-50" value="16" style="strokeWidth=1;shadow=0;dashed=0;align=center;html=1;shape=mxgraph.mockup.forms.rrect;rSize=0;strokeColor=#999999;fontColor=#999999;" parent="ESqp2474Z0uisLlPdI4f-24" vertex="1">
          <mxGeometry x="18.75" y="55.31428571428571" width="12.5" height="12.57142857142857" as="geometry" />
        </mxCell>
        <mxCell id="ESqp2474Z0uisLlPdI4f-51" value="17" style="strokeWidth=1;shadow=0;dashed=0;align=center;html=1;shape=mxgraph.mockup.forms.rrect;rSize=0;strokeColor=#999999;fontColor=#999999;" parent="ESqp2474Z0uisLlPdI4f-24" vertex="1">
          <mxGeometry x="31.25" y="55.31428571428571" width="12.5" height="12.57142857142857" as="geometry" />
        </mxCell>
        <mxCell id="ESqp2474Z0uisLlPdI4f-52" value="18" style="strokeWidth=1;shadow=0;dashed=0;align=center;html=1;shape=mxgraph.mockup.forms.rrect;rSize=0;strokeColor=#999999;fontColor=#999999;" parent="ESqp2474Z0uisLlPdI4f-24" vertex="1">
          <mxGeometry x="43.75" y="55.31428571428571" width="12.5" height="12.57142857142857" as="geometry" />
        </mxCell>
        <mxCell id="ESqp2474Z0uisLlPdI4f-53" value="19" style="strokeWidth=1;shadow=0;dashed=0;align=center;html=1;shape=mxgraph.mockup.forms.rrect;rSize=0;strokeColor=#999999;fontColor=#999999;" parent="ESqp2474Z0uisLlPdI4f-24" vertex="1">
          <mxGeometry x="56.25" y="55.31428571428571" width="12.5" height="12.57142857142857" as="geometry" />
        </mxCell>
        <mxCell id="ESqp2474Z0uisLlPdI4f-54" value="20" style="strokeWidth=1;shadow=0;dashed=0;align=center;html=1;shape=mxgraph.mockup.forms.rrect;rSize=0;strokeColor=#999999;fontColor=#999999;" parent="ESqp2474Z0uisLlPdI4f-24" vertex="1">
          <mxGeometry x="68.75" y="55.31428571428571" width="12.5" height="12.57142857142857" as="geometry" />
        </mxCell>
        <mxCell id="ESqp2474Z0uisLlPdI4f-55" value="21" style="strokeWidth=1;shadow=0;dashed=0;align=center;html=1;shape=mxgraph.mockup.forms.rrect;rSize=0;strokeColor=#999999;fontColor=#999999;" parent="ESqp2474Z0uisLlPdI4f-24" vertex="1">
          <mxGeometry x="81.25" y="55.31428571428571" width="12.5" height="12.57142857142857" as="geometry" />
        </mxCell>
        <mxCell id="ESqp2474Z0uisLlPdI4f-56" value="22" style="strokeWidth=1;shadow=0;dashed=0;align=center;html=1;shape=mxgraph.mockup.forms.rrect;rSize=0;strokeColor=#999999;fontColor=#999999;" parent="ESqp2474Z0uisLlPdI4f-24" vertex="1">
          <mxGeometry x="6.25" y="67.88571428571427" width="12.5" height="12.57142857142857" as="geometry" />
        </mxCell>
        <mxCell id="ESqp2474Z0uisLlPdI4f-57" value="23" style="strokeWidth=1;shadow=0;dashed=0;align=center;html=1;shape=mxgraph.mockup.forms.rrect;rSize=0;strokeColor=#999999;fontColor=#999999;" parent="ESqp2474Z0uisLlPdI4f-24" vertex="1">
          <mxGeometry x="18.75" y="67.88571428571427" width="12.5" height="12.57142857142857" as="geometry" />
        </mxCell>
        <mxCell id="ESqp2474Z0uisLlPdI4f-58" value="25" style="strokeWidth=1;shadow=0;dashed=0;align=center;html=1;shape=mxgraph.mockup.forms.rrect;rSize=0;strokeColor=#999999;fontColor=#999999;" parent="ESqp2474Z0uisLlPdI4f-24" vertex="1">
          <mxGeometry x="43.75" y="67.88571428571427" width="12.5" height="12.57142857142857" as="geometry" />
        </mxCell>
        <mxCell id="ESqp2474Z0uisLlPdI4f-59" value="26" style="strokeWidth=1;shadow=0;dashed=0;align=center;html=1;shape=mxgraph.mockup.forms.rrect;rSize=0;strokeColor=#999999;fontColor=#999999;" parent="ESqp2474Z0uisLlPdI4f-24" vertex="1">
          <mxGeometry x="56.25" y="67.88571428571427" width="12.5" height="12.57142857142857" as="geometry" />
        </mxCell>
        <mxCell id="ESqp2474Z0uisLlPdI4f-60" value="27" style="strokeWidth=1;shadow=0;dashed=0;align=center;html=1;shape=mxgraph.mockup.forms.rrect;rSize=0;strokeColor=#999999;fontColor=#999999;" parent="ESqp2474Z0uisLlPdI4f-24" vertex="1">
          <mxGeometry x="68.75" y="67.88571428571427" width="12.5" height="12.57142857142857" as="geometry" />
        </mxCell>
        <mxCell id="ESqp2474Z0uisLlPdI4f-61" value="28" style="strokeWidth=1;shadow=0;dashed=0;align=center;html=1;shape=mxgraph.mockup.forms.rrect;rSize=0;strokeColor=#999999;fontColor=#999999;" parent="ESqp2474Z0uisLlPdI4f-24" vertex="1">
          <mxGeometry x="81.25" y="67.88571428571427" width="12.5" height="12.57142857142857" as="geometry" />
        </mxCell>
        <mxCell id="ESqp2474Z0uisLlPdI4f-62" value="29" style="strokeWidth=1;shadow=0;dashed=0;align=center;html=1;shape=mxgraph.mockup.forms.rrect;rSize=0;strokeColor=#999999;fontColor=#999999;" parent="ESqp2474Z0uisLlPdI4f-24" vertex="1">
          <mxGeometry x="6.25" y="80.45714285714284" width="12.5" height="12.57142857142857" as="geometry" />
        </mxCell>
        <mxCell id="ESqp2474Z0uisLlPdI4f-63" value="30" style="strokeWidth=1;shadow=0;dashed=0;align=center;html=1;shape=mxgraph.mockup.forms.rrect;rSize=0;strokeColor=#999999;fontColor=#999999;" parent="ESqp2474Z0uisLlPdI4f-24" vertex="1">
          <mxGeometry x="18.75" y="80.45714285714284" width="12.5" height="12.57142857142857" as="geometry" />
        </mxCell>
        <mxCell id="ESqp2474Z0uisLlPdI4f-64" value="31" style="strokeWidth=1;shadow=0;dashed=0;align=center;html=1;shape=mxgraph.mockup.forms.rrect;rSize=0;strokeColor=#999999;fontColor=#999999;" parent="ESqp2474Z0uisLlPdI4f-24" vertex="1">
          <mxGeometry x="31.25" y="80.45714285714284" width="12.5" height="12.57142857142857" as="geometry" />
        </mxCell>
        <mxCell id="ESqp2474Z0uisLlPdI4f-65" value="1" style="strokeWidth=1;shadow=0;dashed=0;align=center;html=1;shape=mxgraph.mockup.forms.rrect;rSize=0;strokeColor=#999999;fontColor=#999999;fillColor=#ddeeff;" parent="ESqp2474Z0uisLlPdI4f-24" vertex="1">
          <mxGeometry x="43.75" y="80.45714285714284" width="12.5" height="12.57142857142857" as="geometry" />
        </mxCell>
        <mxCell id="ESqp2474Z0uisLlPdI4f-66" value="2" style="strokeWidth=1;shadow=0;dashed=0;align=center;html=1;shape=mxgraph.mockup.forms.rrect;rSize=0;strokeColor=#999999;fontColor=#999999;fillColor=#ddeeff;" parent="ESqp2474Z0uisLlPdI4f-24" vertex="1">
          <mxGeometry x="56.25" y="80.45714285714284" width="12.5" height="12.57142857142857" as="geometry" />
        </mxCell>
        <mxCell id="ESqp2474Z0uisLlPdI4f-67" value="3" style="strokeWidth=1;shadow=0;dashed=0;align=center;html=1;shape=mxgraph.mockup.forms.rrect;rSize=0;strokeColor=#999999;fontColor=#999999;fillColor=#ddeeff;" parent="ESqp2474Z0uisLlPdI4f-24" vertex="1">
          <mxGeometry x="68.75" y="80.45714285714284" width="12.5" height="12.57142857142857" as="geometry" />
        </mxCell>
        <mxCell id="ESqp2474Z0uisLlPdI4f-68" value="4" style="strokeWidth=1;shadow=0;dashed=0;align=center;html=1;shape=mxgraph.mockup.forms.rrect;rSize=0;strokeColor=#999999;fontColor=#999999;fillColor=#ddeeff;" parent="ESqp2474Z0uisLlPdI4f-24" vertex="1">
          <mxGeometry x="81.25" y="80.45714285714284" width="12.5" height="12.57142857142857" as="geometry" />
        </mxCell>
        <mxCell id="ESqp2474Z0uisLlPdI4f-69" value="5" style="strokeWidth=1;shadow=0;dashed=0;align=center;html=1;shape=mxgraph.mockup.forms.rrect;rSize=0;strokeColor=#999999;fontColor=#999999;fillColor=#ddeeff;" parent="ESqp2474Z0uisLlPdI4f-24" vertex="1">
          <mxGeometry x="6.25" y="93.02857142857142" width="12.5" height="12.57142857142857" as="geometry" />
        </mxCell>
        <mxCell id="ESqp2474Z0uisLlPdI4f-70" value="6" style="strokeWidth=1;shadow=0;dashed=0;align=center;html=1;shape=mxgraph.mockup.forms.rrect;rSize=0;strokeColor=#999999;fontColor=#999999;fillColor=#ddeeff;" parent="ESqp2474Z0uisLlPdI4f-24" vertex="1">
          <mxGeometry x="18.75" y="93.02857142857142" width="12.5" height="12.57142857142857" as="geometry" />
        </mxCell>
        <mxCell id="ESqp2474Z0uisLlPdI4f-71" value="7" style="strokeWidth=1;shadow=0;dashed=0;align=center;html=1;shape=mxgraph.mockup.forms.rrect;rSize=0;strokeColor=#999999;fontColor=#999999;fillColor=#ddeeff;" parent="ESqp2474Z0uisLlPdI4f-24" vertex="1">
          <mxGeometry x="31.25" y="93.02857142857142" width="12.5" height="12.57142857142857" as="geometry" />
        </mxCell>
        <mxCell id="ESqp2474Z0uisLlPdI4f-72" value="8" style="strokeWidth=1;shadow=0;dashed=0;align=center;html=1;shape=mxgraph.mockup.forms.rrect;rSize=0;strokeColor=#999999;fontColor=#999999;fillColor=#ddeeff;" parent="ESqp2474Z0uisLlPdI4f-24" vertex="1">
          <mxGeometry x="43.75" y="93.02857142857142" width="12.5" height="12.57142857142857" as="geometry" />
        </mxCell>
        <mxCell id="ESqp2474Z0uisLlPdI4f-73" value="9" style="strokeWidth=1;shadow=0;dashed=0;align=center;html=1;shape=mxgraph.mockup.forms.rrect;rSize=0;strokeColor=#999999;fontColor=#999999;fillColor=#ddeeff;" parent="ESqp2474Z0uisLlPdI4f-24" vertex="1">
          <mxGeometry x="56.25" y="93.02857142857142" width="12.5" height="12.57142857142857" as="geometry" />
        </mxCell>
        <mxCell id="ESqp2474Z0uisLlPdI4f-74" value="10" style="strokeWidth=1;shadow=0;dashed=0;align=center;html=1;shape=mxgraph.mockup.forms.rrect;rSize=0;strokeColor=#999999;fontColor=#999999;fillColor=#ddeeff;" parent="ESqp2474Z0uisLlPdI4f-24" vertex="1">
          <mxGeometry x="68.75" y="93.02857142857142" width="12.5" height="12.57142857142857" as="geometry" />
        </mxCell>
        <mxCell id="ESqp2474Z0uisLlPdI4f-75" value="11" style="strokeWidth=1;shadow=0;dashed=0;align=center;html=1;shape=mxgraph.mockup.forms.rrect;rSize=0;strokeColor=#999999;fontColor=#999999;fillColor=#ddeeff;" parent="ESqp2474Z0uisLlPdI4f-24" vertex="1">
          <mxGeometry x="81.25" y="93.02857142857142" width="12.5" height="12.57142857142857" as="geometry" />
        </mxCell>
        <mxCell id="ESqp2474Z0uisLlPdI4f-76" value="24" style="strokeWidth=1;shadow=0;dashed=0;align=center;html=1;shape=mxgraph.mockup.forms.rrect;rSize=0;strokeColor=#ff0000;fontColor=#ffffff;strokeWidth=2;fillColor=#008cff;" parent="ESqp2474Z0uisLlPdI4f-24" vertex="1">
          <mxGeometry x="31.25" y="67.88571428571427" width="12.5" height="12.57142857142857" as="geometry" />
        </mxCell>
        <mxCell id="ESqp2474Z0uisLlPdI4f-77" value="" style="html=1;verticalLabelPosition=bottom;align=center;labelBackgroundColor=#ffffff;verticalAlign=top;strokeWidth=2;strokeColor=#0080F0;shadow=0;dashed=0;shape=mxgraph.ios7.icons.calendar;" parent="1" vertex="1">
          <mxGeometry x="425" y="310" width="30" height="30" as="geometry" />
        </mxCell>
        <mxCell id="ESqp2474Z0uisLlPdI4f-78" value="" style="html=1;verticalLabelPosition=bottom;align=center;labelBackgroundColor=#ffffff;verticalAlign=top;strokeWidth=2;strokeColor=#0080F0;shadow=0;dashed=0;shape=mxgraph.ios7.icons.calendar;" parent="1" vertex="1">
          <mxGeometry x="533" y="310" width="30" height="30" as="geometry" />
        </mxCell>
        <mxCell id="ESqp2474Z0uisLlPdI4f-79" value="Timezone" style="fillColor=none;strokeColor=none;align=left;fontSize=14;fontColor=#212529;" parent="1" vertex="1">
          <mxGeometry x="630" y="280" width="120" height="20" as="geometry" />
        </mxCell>
        <mxCell id="ESqp2474Z0uisLlPdI4f-80" value="Dropdown button" style="rounded=1;fillColor=#F1F2F4;strokeColor=none;html=1;whiteSpace=wrap;fontColor=#596780;align=left;fontSize=12;spacingLeft=10;sketch=0;" parent="1" vertex="1">
          <mxGeometry x="630" y="310" width="100" height="30" as="geometry" />
        </mxCell>
        <mxCell id="ESqp2474Z0uisLlPdI4f-81" value="" style="shape=triangle;direction=south;fillColor=#596780;strokeColor=none;html=1;sketch=0;" parent="ESqp2474Z0uisLlPdI4f-80" vertex="1">
          <mxGeometry x="1" y="0.5" width="12" height="6" relative="1" as="geometry">
            <mxPoint x="-20" y="-3" as="offset" />
          </mxGeometry>
        </mxCell>
        <mxCell id="ESqp2474Z0uisLlPdI4f-82" value="" style="group" parent="1" vertex="1" connectable="0">
          <mxGeometry x="420" y="350" width="120" height="20" as="geometry" />
        </mxCell>
        <mxCell id="ESqp2474Z0uisLlPdI4f-83" value="Address" style="fillColor=none;strokeColor=none;align=left;fontSize=14;fontColor=#212529;" parent="ESqp2474Z0uisLlPdI4f-82" vertex="1">
          <mxGeometry width="120" height="20" as="geometry" />
        </mxCell>
        <mxCell id="ESqp2474Z0uisLlPdI4f-84" value="..." style="html=1;shadow=0;dashed=0;shape=mxgraph.bootstrap.rrect;rSize=5;fillColor=none;strokeColor=#999999;align=left;spacing=15;fontSize=14;fontColor=#6C767D;" parent="ESqp2474Z0uisLlPdI4f-82" vertex="1">
          <mxGeometry width="310" height="20" relative="1" as="geometry">
            <mxPoint y="20" as="offset" />
          </mxGeometry>
        </mxCell>
        <mxCell id="ESqp2474Z0uisLlPdI4f-88" value="" style="group" parent="1" vertex="1" connectable="0">
          <mxGeometry x="420" y="400" width="120" height="20" as="geometry" />
        </mxCell>
        <mxCell id="ESqp2474Z0uisLlPdI4f-89" value="Description and notes" style="fillColor=none;strokeColor=none;align=left;fontSize=14;fontColor=#212529;" parent="ESqp2474Z0uisLlPdI4f-88" vertex="1">
          <mxGeometry width="120" height="20" as="geometry" />
        </mxCell>
        <mxCell id="ESqp2474Z0uisLlPdI4f-90" value="..." style="html=1;shadow=0;dashed=0;shape=mxgraph.bootstrap.rrect;rSize=5;fillColor=none;strokeColor=#999999;align=left;spacing=15;fontSize=14;fontColor=#6C767D;" parent="ESqp2474Z0uisLlPdI4f-88" vertex="1">
          <mxGeometry width="310" height="20" relative="1" as="geometry">
            <mxPoint y="20" as="offset" />
          </mxGeometry>
        </mxCell>
        <mxCell id="ESqp2474Z0uisLlPdI4f-91" value="Gr&amp;nbsp; &amp;nbsp;o&amp;nbsp; upTripper" style="html=1;shadow=0;dashed=0;fillColor=#F8F9FA;strokeColor=none;fontSize=16;fontColor=#181819;align=left;spacing=15;" parent="1" vertex="1">
          <mxGeometry x="400" y="90" width="350" height="50" as="geometry" />
        </mxCell>
        <mxCell id="ESqp2474Z0uisLlPdI4f-92" value="Username" style="fillColor=none;strokeColor=none;fontSize=14;fontColor=#7C7C7D;align=center;" parent="ESqp2474Z0uisLlPdI4f-91" vertex="1">
          <mxGeometry width="80" height="40" relative="1" as="geometry">
            <mxPoint x="270" y="5" as="offset" />
          </mxGeometry>
        </mxCell>
        <mxCell id="ESqp2474Z0uisLlPdI4f-93" value="" style="html=1;verticalLabelPosition=bottom;align=center;labelBackgroundColor=#ffffff;verticalAlign=top;strokeWidth=2;strokeColor=#0080F0;shadow=0;dashed=0;shape=mxgraph.ios7.icons.location;" parent="ESqp2474Z0uisLlPdI4f-91" vertex="1">
          <mxGeometry x="39.998378378378376" y="10.158333333333335" width="26.71351351351351" height="29.683333333333334" as="geometry" />
        </mxCell>
        <mxCell id="ESqp2474Z0uisLlPdI4f-94" value="" style="html=1;verticalLabelPosition=bottom;align=center;labelBackgroundColor=#ffffff;verticalAlign=top;strokeWidth=2;strokeColor=#0080F0;shadow=0;dashed=0;shape=mxgraph.ios7.icons.user;" parent="ESqp2474Z0uisLlPdI4f-91" vertex="1">
          <mxGeometry x="229.99594594594595" y="10.153333333333334" width="28.37837837837838" height="29.683333333333334" as="geometry" />
        </mxCell>
        <mxCell id="ESqp2474Z0uisLlPdI4f-95" value="" style="endArrow=classic;html=1;rounded=0;exitX=1.011;exitY=0.844;exitDx=0;exitDy=0;exitPerimeter=0;entryX=-0.028;entryY=0.699;entryDx=0;entryDy=0;entryPerimeter=0;" parent="1" source="ESqp2474Z0uisLlPdI4f-78" target="ESqp2474Z0uisLlPdI4f-24" edge="1">
          <mxGeometry width="50" height="50" relative="1" as="geometry">
            <mxPoint x="460" y="520" as="sourcePoint" />
            <mxPoint x="830" y="320" as="targetPoint" />
            <Array as="points">
              <mxPoint x="720" y="360" />
            </Array>
          </mxGeometry>
        </mxCell>
        <mxCell id="ESqp2474Z0uisLlPdI4f-96" value="opens calendar to select" style="edgeLabel;html=1;align=center;verticalAlign=middle;resizable=0;points=[];" parent="ESqp2474Z0uisLlPdI4f-95" vertex="1" connectable="0">
          <mxGeometry x="0.6116" y="2" relative="1" as="geometry">
            <mxPoint x="-5" y="-11" as="offset" />
          </mxGeometry>
        </mxCell>
        <mxCell id="ESqp2474Z0uisLlPdI4f-99" value="" style="group" parent="1" vertex="1" connectable="0">
          <mxGeometry x="420" y="450" width="120" height="20" as="geometry" />
        </mxCell>
        <mxCell id="ESqp2474Z0uisLlPdI4f-100" value="Upload attachments" style="fillColor=none;strokeColor=none;align=left;fontSize=14;fontColor=#212529;" parent="ESqp2474Z0uisLlPdI4f-99" vertex="1">
          <mxGeometry width="120" height="20" as="geometry" />
        </mxCell>
        <mxCell id="ESqp2474Z0uisLlPdI4f-102" value="Participants" style="text;html=1;strokeColor=none;fillColor=none;align=center;verticalAlign=middle;whiteSpace=wrap;rounded=0;" parent="1" vertex="1">
          <mxGeometry x="425" y="520" width="60" height="30" as="geometry" />
        </mxCell>
        <mxCell id="ESqp2474Z0uisLlPdI4f-103" value="" style="group" parent="1" vertex="1" connectable="0">
          <mxGeometry x="425" y="550" width="265" height="30" as="geometry" />
        </mxCell>
        <mxCell id="ESqp2474Z0uisLlPdI4f-104" value="" style="rounded=0;whiteSpace=wrap;html=1;" parent="ESqp2474Z0uisLlPdI4f-103" vertex="1">
          <mxGeometry width="265" height="30" as="geometry" />
        </mxCell>
        <mxCell id="ESqp2474Z0uisLlPdI4f-105" value="" style="html=1;verticalLabelPosition=bottom;align=center;labelBackgroundColor=#ffffff;verticalAlign=top;strokeWidth=2;strokeColor=#0080F0;shadow=0;dashed=0;shape=mxgraph.ios7.icons.user;" parent="ESqp2474Z0uisLlPdI4f-103" vertex="1">
          <mxGeometry x="14.543199999999999" y="3.8625000000000003" width="27.856800000000003" height="22.259999999999998" as="geometry" />
        </mxCell>
        <mxCell id="ESqp2474Z0uisLlPdI4f-106" value="Friend 3" style="text;html=1;strokeColor=none;fillColor=none;align=center;verticalAlign=middle;whiteSpace=wrap;rounded=0;" parent="ESqp2474Z0uisLlPdI4f-103" vertex="1">
          <mxGeometry x="46.85975609756099" y="3.862499999999983" width="72.71341463414635" height="22.5" as="geometry" />
        </mxCell>
        <mxCell id="ESqp2474Z0uisLlPdI4f-107" value="" style="html=1;verticalLabelPosition=bottom;align=center;labelBackgroundColor=#ffffff;verticalAlign=top;strokeWidth=2;strokeColor=#0080F0;shadow=0;dashed=0;shape=mxgraph.ios7.icons.trashcan;" parent="1" vertex="1">
          <mxGeometry x="710" y="555" width="20" height="20" as="geometry" />
        </mxCell>
        <mxCell id="ESqp2474Z0uisLlPdI4f-108" value="Ask participants if they will join" style="rounded=1;fillColor=#F0F2F5;strokeColor=#D8DCE3;align=left;verticalAlign=middle;fontStyle=0;fontSize=12;labelPosition=right;verticalLabelPosition=middle;spacingLeft=10;html=1;shadow=0;dashed=0;arcSize=0;" parent="1" vertex="1">
          <mxGeometry x="425" y="600" width="12" height="12" as="geometry" />
        </mxCell>
        <mxCell id="ESqp2474Z0uisLlPdI4f-116" value="Choose File" style="fillColor=#FEFEFE;strokeColor=#AAAAAA;fontSize=14;gradientColor=#F0F0F0;" parent="1" vertex="1">
          <mxGeometry x="420" y="470" width="80" height="20" as="geometry" />
        </mxCell>
        <mxCell id="ESqp2474Z0uisLlPdI4f-117" value="No file chosen" style="fillColor=none;strokeColor=none;align=left;fontSize=14;spacing=5;" parent="1" vertex="1">
          <mxGeometry x="500.5" y="470" width="95" height="20" as="geometry" />
        </mxCell>
        <mxCell id="ESqp2474Z0uisLlPdI4f-122" value="Currency" style="rounded=1;fillColor=#F1F2F4;strokeColor=none;html=1;whiteSpace=wrap;fontColor=#596780;align=left;fontSize=12;spacingLeft=10;sketch=0;" parent="1" vertex="1">
          <mxGeometry x="540" y="500" width="90" height="20" as="geometry" />
        </mxCell>
        <mxCell id="ESqp2474Z0uisLlPdI4f-123" value="" style="shape=triangle;direction=south;fillColor=#596780;strokeColor=none;html=1;sketch=0;" parent="ESqp2474Z0uisLlPdI4f-122" vertex="1">
          <mxGeometry x="1" y="0.5" width="12" height="6" relative="1" as="geometry">
            <mxPoint x="-20" y="-3" as="offset" />
          </mxGeometry>
        </mxCell>
        <mxCell id="ESqp2474Z0uisLlPdI4f-124" value="" style="endArrow=classic;html=1;rounded=0;" parent="1" edge="1">
          <mxGeometry width="50" height="50" relative="1" as="geometry">
            <mxPoint x="600" y="485" as="sourcePoint" />
            <mxPoint x="890" y="420" as="targetPoint" />
          </mxGeometry>
        </mxCell>
        <mxCell id="ESqp2474Z0uisLlPdI4f-125" value="Only for pro membership (not in MVP)" style="text;html=1;strokeColor=none;fillColor=none;align=center;verticalAlign=middle;whiteSpace=wrap;rounded=0;" parent="1" vertex="1">
          <mxGeometry x="860" y="390" width="120" height="30" as="geometry" />
        </mxCell>
        <mxCell id="ESqp2474Z0uisLlPdI4f-128" value="" style="endArrow=classic;html=1;rounded=0;entryX=0.403;entryY=1.182;entryDx=0;entryDy=0;entryPerimeter=0;exitX=1;exitY=0;exitDx=0;exitDy=0;" parent="1" source="ESqp2474Z0uisLlPdI4f-130" target="ESqp2474Z0uisLlPdI4f-125" edge="1">
          <mxGeometry width="50" height="50" relative="1" as="geometry">
            <mxPoint x="640" y="512.5" as="sourcePoint" />
            <mxPoint x="930" y="447.5" as="targetPoint" />
          </mxGeometry>
        </mxCell>
        <mxCell id="ESqp2474Z0uisLlPdI4f-129" value="automatic cost splitting" style="edgeLabel;html=1;align=center;verticalAlign=middle;resizable=0;points=[];" parent="ESqp2474Z0uisLlPdI4f-128" vertex="1" connectable="0">
          <mxGeometry x="0.0931" relative="1" as="geometry">
            <mxPoint as="offset" />
          </mxGeometry>
        </mxCell>
        <mxCell id="ESqp2474Z0uisLlPdI4f-130" value="Split evenly" style="rounded=1;fillColor=#F1F2F4;strokeColor=none;html=1;whiteSpace=wrap;fontColor=#596780;align=left;fontSize=12;spacingLeft=10;sketch=0;" parent="1" vertex="1">
          <mxGeometry x="640" y="500" width="100" height="20" as="geometry" />
        </mxCell>
        <mxCell id="ESqp2474Z0uisLlPdI4f-131" value="" style="shape=triangle;direction=south;fillColor=#596780;strokeColor=none;html=1;sketch=0;" parent="ESqp2474Z0uisLlPdI4f-130" vertex="1">
          <mxGeometry x="1" y="0.5" width="12" height="6" relative="1" as="geometry">
            <mxPoint x="-20" y="-3" as="offset" />
          </mxGeometry>
        </mxCell>
        <mxCell id="ESqp2474Z0uisLlPdI4f-134" value="Same as Edit view" style="text;html=1;strokeColor=none;fillColor=none;align=center;verticalAlign=middle;whiteSpace=wrap;rounded=0;" parent="1" vertex="1">
          <mxGeometry x="505" y="50" width="140" height="30" as="geometry" />
        </mxCell>
        <mxCell id="ESqp2474Z0uisLlPdI4f-138" value="On click, opens dedicated page (same as edit view, but with no editable fields. Displays buttons to Close, Edit (only for task owner)&lt;br&gt;, Delete (only for&amp;nbsp;task owner)). Displays section with comments at the end, which also allows to add comments." style="text;html=1;strokeColor=none;fillColor=none;align=left;verticalAlign=middle;whiteSpace=wrap;rounded=0;" parent="1" vertex="1">
          <mxGeometry x="445" y="750" width="205" height="80" as="geometry" />
        </mxCell>
        <mxCell id="S9qrW3f3tE1Byt3DYHgR-9" value="To book" style="rounded=1;fillColor=#F1F2F4;strokeColor=none;html=1;whiteSpace=wrap;fontColor=#596780;align=left;fontSize=12;spacingLeft=10;sketch=0;" vertex="1" parent="1">
          <mxGeometry x="477" y="630" width="90" height="20" as="geometry" />
        </mxCell>
        <mxCell id="S9qrW3f3tE1Byt3DYHgR-11" value="Status:" style="text;html=1;strokeColor=none;fillColor=none;align=center;verticalAlign=middle;whiteSpace=wrap;rounded=0;" vertex="1" parent="1">
          <mxGeometry x="425" y="625" width="60" height="30" as="geometry" />
        </mxCell>
        <mxCell id="S9qrW3f3tE1Byt3DYHgR-12" value="" style="endArrow=classic;html=1;rounded=0;" edge="1" parent="1">
          <mxGeometry width="50" height="50" relative="1" as="geometry">
            <mxPoint x="560" y="640" as="sourcePoint" />
            <mxPoint x="680" y="750" as="targetPoint" />
          </mxGeometry>
        </mxCell>
        <mxCell id="S9qrW3f3tE1Byt3DYHgR-13" value="options: &lt;br&gt;to book, booked, &lt;br&gt;awaiting votes" style="text;html=1;align=center;verticalAlign=middle;resizable=0;points=[];autosize=1;strokeColor=none;fillColor=none;" vertex="1" parent="1">
          <mxGeometry x="635" y="743" width="110" height="60" as="geometry" />
        </mxCell>
        <mxCell id="S9qrW3f3tE1Byt3DYHgR-14" value="" style="shape=triangle;direction=south;fillColor=#596780;strokeColor=none;html=1;sketch=0;" vertex="1" parent="1">
          <mxGeometry x="545" y="637" width="12" height="6" as="geometry" />
        </mxCell>
      </root>
    </mxGraphModel>
  </diagram>
</mxfile>
